<mxfile host="app.diagrams.net" modified="2023-06-04T23:49:47.108Z" agent="Mozilla/5.0 (Macintosh; Intel Mac OS X 10_15_7) AppleWebKit/537.36 (KHTML, like Gecko) Chrome/112.0.0.0 Safari/537.36 OPR/98.0.0.0 (Edition Yx 05)" etag="Pw6YqQB899WU-BKY6Xx0" version="21.1.4" type="device">
  <diagram id="C5RBs43oDa-KdzZeNtuy" name="Page-1">
    <mxGraphModel dx="1033" dy="618" grid="1" gridSize="10" guides="1" tooltips="1" connect="1" arrows="1" fold="1" page="1" pageScale="1" pageWidth="827" pageHeight="1169" math="0" shadow="0">
      <root>
        <mxCell id="WIyWlLk6GJQsqaUBKTNV-0" />
        <mxCell id="WIyWlLk6GJQsqaUBKTNV-1" parent="WIyWlLk6GJQsqaUBKTNV-0" />
        <mxCell id="WIyWlLk6GJQsqaUBKTNV-2" value="" style="rounded=0;html=1;jettySize=auto;orthogonalLoop=1;fontSize=11;endArrow=block;endFill=0;endSize=8;strokeWidth=1;shadow=0;labelBackgroundColor=none;edgeStyle=orthogonalEdgeStyle;" parent="WIyWlLk6GJQsqaUBKTNV-1" edge="1">
          <mxGeometry relative="1" as="geometry">
            <mxPoint x="220" y="120" as="sourcePoint" />
            <mxPoint x="220" y="170.0000000000001" as="targetPoint" />
          </mxGeometry>
        </mxCell>
        <mxCell id="LoQnh8xhMpJYaCkiyBuK-0" value="Начало" style="ellipse;whiteSpace=wrap;html=1;" vertex="1" parent="WIyWlLk6GJQsqaUBKTNV-1">
          <mxGeometry x="170" y="60" width="100" height="60" as="geometry" />
        </mxCell>
        <mxCell id="LoQnh8xhMpJYaCkiyBuK-3" value="" style="edgeStyle=orthogonalEdgeStyle;rounded=0;orthogonalLoop=1;jettySize=auto;html=1;" edge="1" parent="WIyWlLk6GJQsqaUBKTNV-1" source="LoQnh8xhMpJYaCkiyBuK-1" target="LoQnh8xhMpJYaCkiyBuK-2">
          <mxGeometry relative="1" as="geometry" />
        </mxCell>
        <mxCell id="LoQnh8xhMpJYaCkiyBuK-1" value="longarray" style="shape=parallelogram;perimeter=parallelogramPerimeter;whiteSpace=wrap;html=1;fixedSize=1;" vertex="1" parent="WIyWlLk6GJQsqaUBKTNV-1">
          <mxGeometry x="160" y="170" width="140" height="50" as="geometry" />
        </mxCell>
        <mxCell id="LoQnh8xhMpJYaCkiyBuK-5" value="" style="edgeStyle=orthogonalEdgeStyle;rounded=0;orthogonalLoop=1;jettySize=auto;html=1;" edge="1" parent="WIyWlLk6GJQsqaUBKTNV-1" source="LoQnh8xhMpJYaCkiyBuK-2" target="LoQnh8xhMpJYaCkiyBuK-4">
          <mxGeometry relative="1" as="geometry" />
        </mxCell>
        <mxCell id="LoQnh8xhMpJYaCkiyBuK-2" value="array[longarray];&lt;br&gt;newlong = 0;" style="shape=parallelogram;perimeter=parallelogramPerimeter;whiteSpace=wrap;html=1;fixedSize=1;" vertex="1" parent="WIyWlLk6GJQsqaUBKTNV-1">
          <mxGeometry x="155" y="250" width="150" height="50" as="geometry" />
        </mxCell>
        <mxCell id="LoQnh8xhMpJYaCkiyBuK-13" value="" style="edgeStyle=orthogonalEdgeStyle;rounded=0;orthogonalLoop=1;jettySize=auto;html=1;" edge="1" parent="WIyWlLk6GJQsqaUBKTNV-1" source="LoQnh8xhMpJYaCkiyBuK-4" target="LoQnh8xhMpJYaCkiyBuK-12">
          <mxGeometry relative="1" as="geometry" />
        </mxCell>
        <mxCell id="LoQnh8xhMpJYaCkiyBuK-18" value="" style="edgeStyle=orthogonalEdgeStyle;rounded=0;orthogonalLoop=1;jettySize=auto;html=1;" edge="1" parent="WIyWlLk6GJQsqaUBKTNV-1" source="LoQnh8xhMpJYaCkiyBuK-4" target="LoQnh8xhMpJYaCkiyBuK-17">
          <mxGeometry relative="1" as="geometry">
            <Array as="points">
              <mxPoint x="110" y="380" />
              <mxPoint x="110" y="650" />
            </Array>
          </mxGeometry>
        </mxCell>
        <mxCell id="LoQnh8xhMpJYaCkiyBuK-4" value="i = 0; i &amp;lt; array.Lenght; i++" style="shape=hexagon;perimeter=hexagonPerimeter2;whiteSpace=wrap;html=1;fixedSize=1;" vertex="1" parent="WIyWlLk6GJQsqaUBKTNV-1">
          <mxGeometry x="140" y="340" width="180" height="80" as="geometry" />
        </mxCell>
        <mxCell id="LoQnh8xhMpJYaCkiyBuK-15" value="" style="edgeStyle=orthogonalEdgeStyle;rounded=0;orthogonalLoop=1;jettySize=auto;html=1;" edge="1" parent="WIyWlLk6GJQsqaUBKTNV-1" source="LoQnh8xhMpJYaCkiyBuK-12" target="LoQnh8xhMpJYaCkiyBuK-14">
          <mxGeometry relative="1" as="geometry" />
        </mxCell>
        <mxCell id="LoQnh8xhMpJYaCkiyBuK-12" value="array[i].Lenght &amp;lt;= 3" style="rhombus;whiteSpace=wrap;html=1;" vertex="1" parent="WIyWlLk6GJQsqaUBKTNV-1">
          <mxGeometry x="150" y="440" width="160" height="130" as="geometry" />
        </mxCell>
        <mxCell id="LoQnh8xhMpJYaCkiyBuK-16" style="edgeStyle=orthogonalEdgeStyle;rounded=0;orthogonalLoop=1;jettySize=auto;html=1;entryX=1;entryY=0.5;entryDx=0;entryDy=0;" edge="1" parent="WIyWlLk6GJQsqaUBKTNV-1" source="LoQnh8xhMpJYaCkiyBuK-14" target="LoQnh8xhMpJYaCkiyBuK-4">
          <mxGeometry relative="1" as="geometry">
            <Array as="points">
              <mxPoint x="500" y="505" />
              <mxPoint x="500" y="380" />
            </Array>
          </mxGeometry>
        </mxCell>
        <mxCell id="LoQnh8xhMpJYaCkiyBuK-14" value="newlong++;" style="whiteSpace=wrap;html=1;" vertex="1" parent="WIyWlLk6GJQsqaUBKTNV-1">
          <mxGeometry x="370" y="475" width="120" height="60" as="geometry" />
        </mxCell>
        <mxCell id="LoQnh8xhMpJYaCkiyBuK-21" value="" style="edgeStyle=orthogonalEdgeStyle;rounded=0;orthogonalLoop=1;jettySize=auto;html=1;" edge="1" parent="WIyWlLk6GJQsqaUBKTNV-1" source="LoQnh8xhMpJYaCkiyBuK-17" target="LoQnh8xhMpJYaCkiyBuK-20">
          <mxGeometry relative="1" as="geometry" />
        </mxCell>
        <mxCell id="LoQnh8xhMpJYaCkiyBuK-17" value="newarray[j];&lt;br&gt;j=0;" style="shape=parallelogram;perimeter=parallelogramPerimeter;whiteSpace=wrap;html=1;fixedSize=1;" vertex="1" parent="WIyWlLk6GJQsqaUBKTNV-1">
          <mxGeometry x="155" y="610" width="170" height="60" as="geometry" />
        </mxCell>
        <mxCell id="LoQnh8xhMpJYaCkiyBuK-23" value="" style="edgeStyle=orthogonalEdgeStyle;rounded=0;orthogonalLoop=1;jettySize=auto;html=1;" edge="1" parent="WIyWlLk6GJQsqaUBKTNV-1" source="LoQnh8xhMpJYaCkiyBuK-20" target="LoQnh8xhMpJYaCkiyBuK-22">
          <mxGeometry relative="1" as="geometry" />
        </mxCell>
        <mxCell id="LoQnh8xhMpJYaCkiyBuK-28" value="" style="edgeStyle=orthogonalEdgeStyle;rounded=0;orthogonalLoop=1;jettySize=auto;html=1;" edge="1" parent="WIyWlLk6GJQsqaUBKTNV-1" source="LoQnh8xhMpJYaCkiyBuK-20" target="LoQnh8xhMpJYaCkiyBuK-27">
          <mxGeometry relative="1" as="geometry">
            <Array as="points">
              <mxPoint x="110" y="740" />
              <mxPoint x="110" y="970" />
            </Array>
          </mxGeometry>
        </mxCell>
        <mxCell id="LoQnh8xhMpJYaCkiyBuK-20" value="&lt;meta charset=&quot;utf-8&quot;&gt;&lt;span style=&quot;color: rgb(0, 0, 0); font-family: Helvetica; font-size: 12px; font-style: normal; font-variant-ligatures: normal; font-variant-caps: normal; font-weight: 400; letter-spacing: normal; orphans: 2; text-align: center; text-indent: 0px; text-transform: none; widows: 2; word-spacing: 0px; -webkit-text-stroke-width: 0px; background-color: rgb(251, 251, 251); text-decoration-thickness: initial; text-decoration-style: initial; text-decoration-color: initial; float: none; display: inline !important;&quot;&gt;i = 0; i &amp;lt; array.Lenght; i++&lt;/span&gt;" style="shape=hexagon;perimeter=hexagonPerimeter2;whiteSpace=wrap;html=1;fixedSize=1;" vertex="1" parent="WIyWlLk6GJQsqaUBKTNV-1">
          <mxGeometry x="145" y="700" width="190" height="80" as="geometry" />
        </mxCell>
        <mxCell id="LoQnh8xhMpJYaCkiyBuK-25" value="" style="edgeStyle=orthogonalEdgeStyle;rounded=0;orthogonalLoop=1;jettySize=auto;html=1;" edge="1" parent="WIyWlLk6GJQsqaUBKTNV-1" source="LoQnh8xhMpJYaCkiyBuK-22" target="LoQnh8xhMpJYaCkiyBuK-24">
          <mxGeometry relative="1" as="geometry" />
        </mxCell>
        <mxCell id="LoQnh8xhMpJYaCkiyBuK-22" value="array[i].Lenght &amp;lt;= 3" style="rhombus;whiteSpace=wrap;html=1;" vertex="1" parent="WIyWlLk6GJQsqaUBKTNV-1">
          <mxGeometry x="160" y="800" width="160" height="80" as="geometry" />
        </mxCell>
        <mxCell id="LoQnh8xhMpJYaCkiyBuK-26" style="edgeStyle=orthogonalEdgeStyle;rounded=0;orthogonalLoop=1;jettySize=auto;html=1;entryX=1;entryY=0.5;entryDx=0;entryDy=0;" edge="1" parent="WIyWlLk6GJQsqaUBKTNV-1" source="LoQnh8xhMpJYaCkiyBuK-24" target="LoQnh8xhMpJYaCkiyBuK-20">
          <mxGeometry relative="1" as="geometry">
            <Array as="points">
              <mxPoint x="510" y="840" />
              <mxPoint x="510" y="740" />
            </Array>
          </mxGeometry>
        </mxCell>
        <mxCell id="LoQnh8xhMpJYaCkiyBuK-24" value="newarray[j] = array[i];&lt;br&gt;j++;" style="whiteSpace=wrap;html=1;" vertex="1" parent="WIyWlLk6GJQsqaUBKTNV-1">
          <mxGeometry x="370" y="810" width="120" height="60" as="geometry" />
        </mxCell>
        <mxCell id="LoQnh8xhMpJYaCkiyBuK-30" value="" style="edgeStyle=orthogonalEdgeStyle;rounded=0;orthogonalLoop=1;jettySize=auto;html=1;" edge="1" parent="WIyWlLk6GJQsqaUBKTNV-1" source="LoQnh8xhMpJYaCkiyBuK-27" target="LoQnh8xhMpJYaCkiyBuK-29">
          <mxGeometry relative="1" as="geometry" />
        </mxCell>
        <mxCell id="LoQnh8xhMpJYaCkiyBuK-27" value="newarray" style="shape=document;whiteSpace=wrap;html=1;boundedLbl=1;" vertex="1" parent="WIyWlLk6GJQsqaUBKTNV-1">
          <mxGeometry x="180" y="930" width="120" height="80" as="geometry" />
        </mxCell>
        <mxCell id="LoQnh8xhMpJYaCkiyBuK-29" value="Конец" style="ellipse;whiteSpace=wrap;html=1;" vertex="1" parent="WIyWlLk6GJQsqaUBKTNV-1">
          <mxGeometry x="170" y="1040" width="140" height="50" as="geometry" />
        </mxCell>
      </root>
    </mxGraphModel>
  </diagram>
</mxfile>
